<?xml version="1.0" standalone="no"?>
<!DOCTYPE svg PUBLIC "-//W3C//DTD SVG 20010904//EN"
 "http://www.w3.org/TR/2001/REC-SVG-20010904/DTD/svg10.dtd">
<svg version="1.0" xmlns="http://www.w3.org/2000/svg"
 width="500.000000pt" height="500.000000pt" viewBox="0 0 500.000000 500.000000"
 preserveAspectRatio="xMidYMid meet">
<metadata>
Created by potrace 1.14, written by Peter Selinger 2001-2017
</metadata>
<g transform="translate(0.000000,500.000000) scale(0.100000,-0.100000)"
fill="#000000" stroke="none">
<path d="M0 2500 l0 -2500 2500 0 2500 0 0 2500 0 2500 -2500 0 -2500 0 0
-2500z m2673 1597 c157 -92 184 -309 55 -439 -56 -56 -102 -73 -193 -73 -91 0
-137 19 -191 77 -57 59 -78 114 -78 198 0 100 33 163 114 222 54 39 88 48 171
45 61 -3 85 -9 122 -30z m-553 -282 l0 -65 -365 0 -365 0 0 -200 0 -200 1108
-2 1107 -3 0 -65 0 -65 -1172 -3 -1173 -2 0 335 0 335 430 0 430 0 0 -65z
m1740 -375 c0 -242 -3 -440 -7 -440 -5 0 -34 24 -66 53 l-58 52 -2 320 -2 320
-382 3 -383 2 0 65 0 65 450 0 450 0 0 -440z m-2160 -430 c143 -19 249 -95
309 -220 23 -48 26 -68 26 -155 0 -81 -4 -109 -21 -146 -29 -62 -83 -121 -139
-150 -25 -13 -45 -27 -45 -30 0 -4 55 -82 121 -175 67 -93 124 -175 126 -181
4 -10 -21 -13 -106 -13 l-110 0 -39 53 c-21 28 -82 116 -135 193 -96 140 -97
143 -97 202 l0 59 66 6 c122 9 188 81 182 194 -3 51 -9 69 -34 100 -49 62 -91
77 -231 81 l-123 4 0 -446 0 -446 -30 0 -30 0 0 -205 0 -205 1108 -2 1107 -3
0 -65 0 -65 -1172 -3 -1173 -2 0 815 0 815 183 0 c100 0 216 -5 257 -10z
m1137 -22 l58 -23 3 -103 c1 -57 -1 -102 -5 -100 -104 52 -107 53 -213 53 -98
0 -109 -2 -159 -30 -64 -35 -114 -91 -150 -165 -23 -48 -26 -68 -26 -155 0
-87 3 -107 27 -157 32 -69 96 -135 163 -167 38 -19 71 -26 135 -29 82 -4 126
5 213 43 16 6 17 -1 17 -93 0 -99 0 -100 -27 -111 -80 -31 -218 -40 -315 -20
-138 29 -285 143 -355 275 -83 156 -83 371 -1 527 119 225 413 343 635 255z
m693 3 c99 -31 172 -97 221 -197 79 -162 26 -364 -121 -465 -73 -50 -145 -69
-261 -69 -52 0 -99 -4 -106 -8 -9 -5 -13 -53 -15 -157 l-3 -150 -97 -3 -98 -3
0 534 c0 294 3 537 8 541 4 5 97 6 207 3 167 -4 211 -8 265 -26z m330 -1176
l0 -425 -64 0 -63 0 -5 58 c-5 51 -5 329 0 599 l2 101 62 46 c34 25 63 46 65
46 2 0 3 -191 3 -425z m-332 263 c19 -19 14 -46 -13 -64 -24 -16 -27 -16 -45
1 -34 31 -19 75 25 75 12 0 26 -5 33 -12z m-1565 -375 c9 -24 13 -43 8 -43 -6
0 -13 5 -16 10 -9 14 -42 12 -48 -2 -2 -7 -8 -10 -11 -6 -4 3 2 28 13 54 23
52 30 51 54 -13z m191 42 c18 -19 11 -42 -15 -50 -10 -4 -19 -13 -19 -21 0 -8
-4 -14 -10 -14 -11 0 -14 83 -3 93 11 11 31 8 47 -8z m180 9 c23 -9 20 -51 -4
-59 -11 -3 -20 -13 -20 -21 0 -8 -4 -14 -10 -14 -5 0 -10 23 -10 50 0 51 7 58
44 44z m207 -40 c22 -49 19 -65 -7 -44 -13 11 -19 11 -36 1 -11 -7 -22 -10
-24 -8 -6 5 33 97 41 97 3 0 15 -21 26 -46z m195 32 c16 -13 17 -18 6 -36 -10
-17 -10 -25 -1 -36 9 -11 8 -14 -4 -14 -8 0 -18 6 -21 13 -5 10 -7 10 -12 0
-12 -27 -24 -11 -24 30 0 60 16 72 56 43z m188 5 c3 -5 -4 -12 -17 -16 -19 -6
-19 -8 -4 -12 21 -6 23 -23 2 -23 -8 0 -15 -4 -15 -10 0 -5 9 -10 20 -10 11 0
20 -4 20 -10 0 -5 -13 -10 -30 -10 -29 0 -30 2 -30 43 0 24 3 47 7 50 9 10 41
9 47 -2z m156 -37 c0 -24 5 -34 15 -34 8 0 15 -4 15 -10 0 -5 -11 -10 -25 -10
-23 0 -25 3 -25 51 0 31 4 48 10 44 6 -3 10 -22 10 -41z"/>
<path d="M2474 3951 c-60 -36 -68 -124 -17 -175 74 -74 193 -19 193 90 0 28
-8 44 -34 70 -40 40 -92 46 -142 15z"/>
<path d="M3250 2634 l0 -197 96 7 c137 9 187 33 225 108 39 76 15 180 -54 232
-39 30 -112 46 -203 46 l-64 0 0 -196z"/>
<path d="M3473 2055 c-3 -9 -3 -18 -1 -21 3 -3 8 4 11 16 6 23 -1 27 -10 5z"/>
<path d="M1925 1710 c-3 -5 -1 -10 4 -10 6 0 11 5 11 10 0 6 -2 10 -4 10 -3 0
-8 -4 -11 -10z"/>
<path d="M2120 1725 c0 -8 5 -15 10 -15 6 0 10 7 10 15 0 8 -4 15 -10 15 -5 0
-10 -7 -10 -15z"/>
<path d="M2310 1725 c0 -8 5 -15 10 -15 6 0 10 7 10 15 0 8 -4 15 -10 15 -5 0
-10 -7 -10 -15z"/>
<path d="M2706 1731 c-4 -5 -2 -12 3 -15 5 -4 12 -2 15 3 4 5 2 12 -3 15 -5 4
-12 2 -15 -3z"/>
</g>
</svg>
